# xmcd
# Track frame offsets:
# 150
# 12176
# 23538
# 35149
# 48657
# 61203
# 72044
# 84535
# 94547
# 105844
# 116628
# 127980
# 140731
# 152290
# 162312
# 175432
# 183480
# 195303
# 206376
# 215405
#
# Disc length: 2978 seconds
# Revision: 0
# Processed by: cddbd v1.5.2PL0 Copyright (c) Steve Scherf et al.
# Submitted via: VisiTrax 2.11.3.279 - For more info visit www.synapsa.com
#
DISCID=050ba014
DTITLE=Various (1930s-1950s) Rock n Roll and Blues and Jazz Artists - Roots Of Ro
DTITLE=ck and Roll: Rough And Rowdy: CD1 of 10: *ReMastered Tracks
DYEAR=2014
DGENRE=Rock n Roll
TTITLE0=Louis Jordan - Caledonia*
TTITLE1=Ruth Brown - Wild, Wild Young Men*
TTITLE2=Bobby Day - Honeysuckle Baby*
TTITLE3=Oscar McLollie - Roll, Hot Rod, Roll*
TTITLE4=Marylin Scott - Johnny Otis Orchestra - Beer Bottle Boogie*
TTITLE5=Champion Jack Dupree - Shake Baby, Shake*
TTITLE6=Hank Ballard and The Midnighters - Work With Me Annie*
TTITLE7=Smiley Lewis - Lillie Mae*
TTITLE8=Big Joe Turner - Lipstick, Powder And Paint*
TTITLE9=Don Julian and The Meadowlarks - Boogie Woogie Teenage*
TTITLE10=Fluffy Hunter - Fluffy's Debut*
TTITLE11=Jackie Brenston - Rocket "88"*
TTITLE12=Pee Wee Crayton - You Know Yeah*
TTITLE13=Eddie Bo - I'm Wise*
TTITLE14=Richard Berry - Crazy Lover*
TTITLE15=Gaylarks The - Teenage Mambo*
TTITLE16=Johnny "Guitar" Watson - Space Guitar*
TTITLE17=Professor Longhair - Oh Well*
TTITLE18=Bullmoose Jackson - Watch My Signals*
TTITLE19=Ivory Joe Hunter - Shooty Booty*
EXTD=Compilation and ReMastering: Document-The Intense Media: 2014
EXTT0=
EXTT1=
EXTT2=
EXTT3=
EXTT4=
EXTT5=
EXTT6=
EXTT7=
EXTT8=
EXTT9=
EXTT10=
EXTT11=
EXTT12=
EXTT13=
EXTT14=
EXTT15=
EXTT16=
EXTT17=
EXTT18=
EXTT19=
PLAYORDER=
